<svg xmlns="http://www.w3.org/2000/svg" viewBox="0 0 512 512">
  <defs>
    <linearGradient id="grad1" x1="0%" y1="0%" x2="100%" y2="100%">
      <stop offset="0%" style="stop-color:#ffffff;stop-opacity:1" />
      <stop offset="100%" style="stop-color:#a1a1aa;stop-opacity:1" />
    </linearGradient>
  </defs>
  <path fill="url(#grad1)" d="M256 32a224 224 0 1 0 224 224A224 224 0 0 0 256 32zm0 400a176 176 0 1 1 176-176 176 176 0 0 1-176 176zm0-320a144 144 0 1 0 144 144 144 144 0 0 0-144-144z"/>
  <path fill="#fff" d="M368 256h-80v-80h-64v80h-80v64h80v80h64v-80h80z" transform="rotate(45 256 256)"/>
</svg>
